<svg width="25" height="14" viewBox="0 0 25 14" fill="none" xmlns="http://www.w3.org/2000/svg">
<path d="M24.0439 12.3671C23.9794 12.2591 23.5803 11.392 21.6602 9.60991C19.6501 7.74377 19.9201 8.04679 22.3413 4.82005C23.8159 2.8549 24.4054 1.65481 24.2209 1.14178C24.0454 0.65274 22.9608 0.78175 22.9608 0.78175L19.3545 0.802751C19.3545 0.802751 19.0875 0.766749 18.888 0.885258C18.6945 1.00227 18.57 1.27229 18.57 1.27229C18.57 1.27229 17.9984 2.7934 17.2364 4.0865C15.6298 6.8152 14.9862 6.95921 14.7237 6.7897C14.1132 6.39517 14.2662 5.20258 14.2662 4.35652C14.2662 1.71182 14.6667 0.609237 13.4846 0.324216C13.0916 0.229709 12.8036 0.166704 11.8 0.156203C10.5129 0.142702 9.42231 0.160704 8.80577 0.462226C8.39474 0.663241 8.07822 1.11177 8.27173 1.13728C8.51025 1.16878 9.05029 1.28279 9.33681 1.67282C9.70734 2.17535 9.69383 3.30644 9.69383 3.30644C9.69383 3.30644 9.90685 6.41917 9.1973 6.8062C8.70976 7.07172 8.04221 6.53018 6.60961 4.05349C5.87606 2.7859 5.32102 1.3833 5.32102 1.3833C5.32102 1.3833 5.21451 1.12228 5.02399 0.982765C4.79298 0.813252 4.46895 0.759248 4.46895 0.759248L1.0397 0.78025C1.0397 0.78025 0.525167 0.795251 0.336153 1.01877C0.168141 1.21828 0.322652 1.62931 0.322652 1.62931C0.322652 1.62931 3.00785 7.91028 6.04707 11.077C8.83577 13.9797 12.001 13.7892 12.001 13.7892H13.4351C13.4351 13.7892 13.8686 13.7412 14.0892 13.5027C14.2932 13.2837 14.2857 12.8726 14.2857 12.8726C14.2857 12.8726 14.2572 10.948 15.1512 10.6645C16.0318 10.3855 17.1629 12.5246 18.3615 13.3482C19.2675 13.9707 19.9561 13.8342 19.9561 13.8342L23.1618 13.7892C23.1618 13.7892 24.8389 13.6857 24.0439 12.3671Z" fill="black"/>
</svg>
